<svg xmlns="http://www.w3.org/2000/svg" viewBox="0 0 32 32" fill="#3b5998">
    <path
        d="M16-.034C7.159-.034-.035 7.158-.035 16S7.159 32.034 16 32.034S32.035 24.842 32.035 16S24.841-.034 16-.034zm0 31C7.748 30.966 1.035 24.252 1.035 16S7.748 1.034 16 1.034S30.965 7.748 30.965 16S24.252 30.966 16 30.966z"></path>
    <path
        d="M19.5 7h-2.668C13.434 6.966 13 9.069 13 11.345V13h-1.5a.445.445 0 0 0-.5.5v3a.445.445 0 0 0 .5.5H13v7.5a.449.449 0 0 0 .503.5h3.055c.295.034.534-.205.44-.5L17 17h2.5a.445.445 0 0 0 .5-.5v-3a.445.445 0 0 0-.5-.5h-2.503L17 11.5c.097-.639.097-.535.69-.5h1.789c.139-.031.287-.014.391-.115c.104-.101.164-.239.129-.385v-3A.444.444 0 0 0 19.5 7zm-.535 2.944l-1.254-.048c-1.553 0-1.683.843-1.683 1.706l-.004 1.896a.534.534 0 0 0 .534.535H19v1.932h-2.44a.535.535 0 0 0-.535.534L16.024 24H14v-7.5c0-.295-.201-.534-.497-.534H12v-1.932h1.503a.534.534 0 0 0 .378-.156c.1-.101.118-.237.118-.379v-2.155c0-2.242.453-3.31 2.832-3.31h2.133v1.91z"></path>
</svg>
