<svg xmlns="http://www.w3.org/2000/svg" viewBox="0 0 24 24" stroke="#3b5998"><path d="M17.99 1.596a27.982 27.982 0 0 0-3.037-.156C11.59 1.44 9.5 3.582 9.5 7.03v2.341H6.675a.5.5 0 0 0-.5.5v3.85a.5.5 0 0 0 .5.5H9.5v7.72a.5.5 0 0 0 .5.5h3.978a.5.5 0 0 0 .5-.5v-7.72h2.816a.5.5 0 0 0 .496-.435l.497-3.85a.5.5 0 0 0-.496-.565h-3.313V7.412c0-.97.195-1.375 1.408-1.375h2.039a.5.5 0 0 0 .5-.5V2.092a.5.5 0 0 0-.435-.496zm-.565 3.44l-1.54.001c-2.157 0-2.407 1.356-2.407 2.375v2.46a.5.5 0 0 0 .499.5h3.246l-.369 2.85h-2.876a.5.5 0 0 0-.5.5v7.718H10.5v-7.718a.5.5 0 0 0-.5-.5H7.176v-2.85H10a.5.5 0 0 0 .5-.5V7.03c0-2.874 1.665-4.59 4.453-4.59c1.009 0 1.92.055 2.472.103v2.493z" fill="currentColor"></path></svg>
