<svg xmlns="http://www.w3.org/2000/svg" viewBox="0 0 24 24" stroke="currentColor" fill="none">
    <path stroke-width="1.5px" d="M20.44 7.62h-2.9c-.24 0-.463.133-.577.347 0 0-1.156 2.13-1.528 2.848-1 1.932-1.647 1.326-1.647.43V8.152c0-.537-.436-.972-.973-.972h-2.182c-.604-.044-1.188.227-1.543.717 0 0 1.106-.18 1.106 1.313 0 .37.02 1.434.035 2.328.008.355-.274.65-.63.656-.187.003-.365-.074-.49-.213-.892-1.24-1.632-2.585-2.202-4.004-.1-.216-.316-.355-.556-.355H3.716c-.248 0-.45.198-.452.445 0 .055.01.108.028.16.8 2.195 4.25 9.094 8.185 9.094h1.655c.362 0 .654-.294.654-.655v-1c0-.356.29-.643.646-.643.162 0 .32.063.438.175l1.98 1.862c.18.166.413.26.658.26h2.604c1.255 0 1.255-.872.57-1.547-.48-.474-2.22-2.308-2.22-2.308-.307-.32-.336-.813-.07-1.166.563-.742 1.482-1.95 1.873-2.47.534-.707 1.498-2.21.176-2.21z"/>
    <circle cx="12" cy="12" r="11.5"/>
</svg>
